<svg width="1116" height="462" viewBox="0 0 1116 462" fill="none" xmlns="http://www.w3.org/2000/svg">
<rect x="181.731" y="151" width="24.6154" height="26.6667" fill="#D9F99D"/>
<rect x="107.885" y="257.667" width="24.6154" height="26.6667" fill="#D9F99D"/>
<rect x="132.5" y="151" width="24.6154" height="26.6667" fill="#84CC16"/>
<rect x="157.115" y="177.667" width="24.6154" height="26.6667" fill="#84CC16"/>
<rect x="181.731" y="204.333" width="24.6154" height="26.6667" fill="#84CC16"/>
<rect x="132.5" y="177.667" width="24.6154" height="26.6667" fill="#84CC16"/>
<rect x="157.115" y="151" width="24.6154" height="26.6667" fill="#D9F99D"/>
<rect x="83.2692" y="231" width="24.6154" height="26.6667" fill="#D9F99D"/>
<rect x="157.115" y="204.333" width="24.6154" height="26.6667" fill="#84CC16"/>
<rect x="83.2692" y="257.667" width="24.6154" height="26.6667" fill="#D9F99D"/>
<rect x="107.885" y="204.333" width="24.6154" height="26.6667" fill="#D9F99D"/>
<rect x="58.6538" y="257.667" width="24.6154" height="26.6667" fill="#EF4444"/>
<rect x="181.731" y="177.667" width="24.6154" height="26.6667" fill="#D9F99D"/>
<rect x="132.5" y="204.333" width="24.6154" height="26.6667" fill="#D9F99D"/>
<rect x="107.885" y="231" width="24.6154" height="26.6667" fill="#D9F99D"/>
<rect x="132.5" y="231" width="24.6154" height="26.6667" fill="#D9F99D"/>
<rect x="83.2692" y="284.333" width="24.6154" height="26.6667" fill="#EF4444"/>
<rect x="58.6538" y="284.333" width="24.6154" height="26.6667" fill="#EF4444"/>
<rect x="83.2692" y="204.333" width="24.6154" height="26.6667" fill="#D9F99D"/>
<rect x="132.5" y="257.667" width="24.6154" height="26.6667" fill="#D9F99D"/>
<rect width="12" height="12.6154" transform="matrix(-1 0 0 1 338.346 149)" fill="#84CC16"/>
<rect width="12" height="12.6154" transform="matrix(-1 0 0 1 350.346 161.615)" fill="#84CC16"/>
<rect width="12" height="12.6154" transform="matrix(-1 0 0 1 362.346 174.231)" fill="#84CC16"/>
<rect width="12" height="12.6154" transform="matrix(-1 0 0 1 374.346 186.846)" fill="#84CC16"/>
<rect width="12" height="12.6154" transform="matrix(-1 0 0 1 374.346 199.462)" fill="#84CC16"/>
<rect width="12" height="12.6154" transform="matrix(-1 0 0 1 374.346 212.077)" fill="#84CC16"/>
<rect width="12" height="12.6154" transform="matrix(-1 0 0 1 374.346 224.692)" fill="#84CC16"/>
<rect width="12" height="12.6154" transform="matrix(-1 0 0 1 374.346 237.308)" fill="#84CC16"/>
<rect width="12" height="12.6154" transform="matrix(-1 0 0 1 374.346 249.923)" fill="#84CC16"/>
<rect width="12" height="12.6154" transform="matrix(-1 0 0 1 374.346 262.539)" fill="#84CC16"/>
<rect width="12" height="12.6154" transform="matrix(-1 0 0 1 362.346 275.154)" fill="#84CC16"/>
<rect width="12" height="12.6154" transform="matrix(-1 0 0 1 350.346 287.769)" fill="#84CC16"/>
<rect width="12" height="12.6154" transform="matrix(-1 0 0 1 338.346 300.385)" fill="#84CC16"/>
<rect width="12" height="12.6154" transform="matrix(-1 0 0 1 326.346 300.385)" fill="#84CC16"/>
<rect width="12" height="12.6154" transform="matrix(-1 0 0 1 314.346 300.385)" fill="#84CC16"/>
<rect width="12" height="12.6154" transform="matrix(-1 0 0 1 326.346 149)" fill="#84CC16"/>
<rect width="12" height="12.6154" transform="matrix(-1 0 0 1 314.346 149)" fill="#84CC16"/>
<rect x="254.346" y="149" width="12" height="12.6154" fill="#84CC16"/>
<rect x="242.346" y="161.615" width="12" height="12.6154" fill="#84CC16"/>
<rect x="230.346" y="174.231" width="12" height="12.6154" fill="#84CC16"/>
<rect x="218.346" y="186.846" width="12" height="12.6154" fill="#84CC16"/>
<rect x="218.346" y="199.462" width="12" height="12.6154" fill="#84CC16"/>
<rect x="218.346" y="212.077" width="12" height="12.6154" fill="#84CC16"/>
<rect x="218.346" y="224.692" width="12" height="12.6154" fill="#84CC16"/>
<rect x="218.346" y="237.308" width="12" height="12.6154" fill="#84CC16"/>
<rect x="218.346" y="249.923" width="12" height="12.6154" fill="#84CC16"/>
<rect x="218.346" y="262.539" width="12" height="12.6154" fill="#84CC16"/>
<rect x="230.346" y="275.154" width="12" height="12.6154" fill="#84CC16"/>
<rect x="242.346" y="287.769" width="12" height="12.6154" fill="#84CC16"/>
<rect x="254.346" y="300.385" width="12" height="12.6154" fill="#84CC16"/>
<rect x="266.346" y="300.385" width="12" height="12.6154" fill="#84CC16"/>
<rect x="278.346" y="300.385" width="12" height="12.6154" fill="#84CC16"/>
<rect x="290.346" y="300.385" width="12" height="12.6154" fill="#84CC16"/>
<rect x="266.346" y="149" width="12" height="12.6154" fill="#84CC16"/>
<rect x="278.346" y="149" width="12" height="12.6154" fill="#84CC16"/>
<rect x="290.346" y="149" width="12" height="12.6154" fill="#84CC16"/>
<rect x="266.346" y="186.846" width="12" height="12.6154" fill="#84CC16"/>
<rect x="254.346" y="199.462" width="12" height="12.6154" fill="#84CC16"/>
<rect x="254.346" y="212.077" width="12" height="12.6154" fill="#84CC16"/>
<rect x="254.346" y="224.692" width="12" height="12.6154" fill="#84CC16"/>
<rect x="254.346" y="237.308" width="12" height="12.6154" fill="#84CC16"/>
<rect x="254.346" y="249.923" width="12" height="12.6154" fill="#84CC16"/>
<rect x="266.346" y="262.539" width="12" height="12.6154" fill="#84CC16"/>
<rect x="278.346" y="262.539" width="12" height="12.6154" fill="#84CC16"/>
<rect x="290.346" y="262.539" width="12" height="12.6154" fill="#84CC16"/>
<rect x="290.346" y="186.846" width="12" height="12.6154" fill="#84CC16"/>
<rect x="278.346" y="186.846" width="12" height="12.6154" fill="#84CC16"/>
<rect x="302.346" y="186.846" width="12" height="12.6154" fill="#84CC16"/>
<rect x="314.346" y="186.846" width="12" height="12.6154" fill="#84CC16"/>
<path d="M326.346 199.462H338.346V212.077H326.346V199.462Z" fill="#84CC16"/>
<rect x="326.346" y="212.077" width="12" height="12.6154" fill="#84CC16"/>
<rect x="326.346" y="224.692" width="12" height="12.6154" fill="#84CC16"/>
<rect x="326.346" y="237.308" width="12" height="12.6154" fill="#84CC16"/>
<rect x="326.346" y="249.923" width="12" height="12.6154" fill="#84CC16"/>
<rect x="302.346" y="262.539" width="12" height="12.6154" fill="#84CC16"/>
<rect x="314.346" y="262.539" width="12" height="12.6154" fill="#84CC16"/>
<rect x="230.346" y="186.846" width="12" height="12.6154" fill="#D9F99D"/>
<rect x="242.346" y="174.231" width="12" height="12.6154" fill="#D9F99D"/>
<rect x="254.346" y="161.615" width="12" height="12.6154" fill="#D9F99D"/>
<rect x="254.346" y="174.231" width="12" height="12.6154" fill="#D9F99D"/>
<rect x="266.346" y="174.231" width="12" height="12.6154" fill="#D9F99D"/>
<rect x="278.346" y="174.231" width="12" height="12.6154" fill="#D9F99D"/>
<rect x="290.346" y="174.231" width="12" height="12.6154" fill="#D9F99D"/>
<rect x="302.346" y="174.231" width="12" height="12.6154" fill="#D9F99D"/>
<rect x="314.346" y="174.231" width="12" height="12.6154" fill="#D9F99D"/>
<rect x="326.346" y="174.231" width="12" height="12.6154" fill="#D9F99D"/>
<rect x="326.346" y="186.846" width="12" height="12.6154" fill="#D9F99D"/>
<rect x="338.346" y="174.231" width="12" height="12.6154" fill="#D9F99D"/>
<rect x="338.346" y="199.462" width="12" height="12.6154" fill="#D9F99D"/>
<rect x="338.346" y="212.077" width="12" height="12.6154" fill="#D9F99D"/>
<rect x="338.346" y="224.692" width="12" height="12.6154" fill="#D9F99D"/>
<rect x="338.346" y="237.308" width="12" height="12.6154" fill="#D9F99D"/>
<rect x="338.346" y="249.923" width="12" height="12.6154" fill="#D9F99D"/>
<rect x="338.346" y="262.539" width="12" height="12.6154" fill="#D9F99D"/>
<rect x="326.346" y="262.539" width="12" height="12.6154" fill="#D9F99D"/>
<rect x="338.346" y="275.154" width="12" height="12.6154" fill="#D9F99D"/>
<rect x="338.346" y="186.846" width="12" height="12.6154" fill="#D9F99D"/>
<rect x="350.346" y="186.846" width="12" height="12.6154" fill="#D9F99D"/>
<rect x="350.346" y="199.462" width="12" height="12.6154" fill="#D9F99D"/>
<rect x="350.346" y="212.077" width="12" height="12.6154" fill="#D9F99D"/>
<rect x="350.346" y="224.692" width="12" height="12.6154" fill="#D9F99D"/>
<rect x="350.346" y="237.308" width="12" height="12.6154" fill="#D9F99D"/>
<rect x="350.346" y="249.923" width="12" height="12.6154" fill="#D9F99D"/>
<rect x="350.346" y="262.539" width="12" height="12.6154" fill="#D9F99D"/>
<rect x="254.346" y="186.846" width="12" height="12.6154" fill="#D9F99D"/>
<rect x="266.346" y="161.615" width="12" height="12.6154" fill="#D9F99D"/>
<rect x="278.346" y="161.615" width="12" height="12.6154" fill="#D9F99D"/>
<rect x="290.346" y="161.615" width="12" height="12.6154" fill="#D9F99D"/>
<rect x="302.346" y="161.615" width="12" height="12.6154" fill="#D9F99D"/>
<rect x="314.346" y="161.615" width="12" height="12.6154" fill="#D9F99D"/>
<rect x="326.346" y="161.615" width="12" height="12.6154" fill="#D9F99D"/>
<rect x="242.346" y="186.846" width="12" height="12.6154" fill="#D9F99D"/>
<rect x="242.346" y="199.462" width="12" height="12.6154" fill="#D9F99D"/>
<rect x="242.346" y="212.077" width="12" height="12.6154" fill="#D9F99D"/>
<rect x="242.346" y="224.692" width="12" height="12.6154" fill="#D9F99D"/>
<rect x="242.346" y="237.308" width="12" height="12.6154" fill="#D9F99D"/>
<rect x="242.346" y="249.923" width="12" height="12.6154" fill="#D9F99D"/>
<rect x="242.346" y="262.539" width="12" height="12.6154" fill="#D9F99D"/>
<rect x="254.346" y="262.539" width="12" height="12.6154" fill="#D9F99D"/>
<rect x="254.346" y="275.154" width="12" height="12.6154" fill="#D9F99D"/>
<rect x="266.346" y="275.154" width="12" height="12.6154" fill="#D9F99D"/>
<rect x="278.346" y="275.154" width="12" height="12.6154" fill="#D9F99D"/>
<rect x="290.346" y="275.154" width="12" height="12.6154" fill="#D9F99D"/>
<rect x="302.346" y="275.154" width="12" height="12.6154" fill="#D9F99D"/>
<rect x="314.346" y="275.154" width="12" height="12.6154" fill="#D9F99D"/>
<rect x="326.346" y="275.154" width="12" height="12.6154" fill="#D9F99D"/>
<rect x="254.346" y="287.769" width="12" height="12.6154" fill="#D9F99D"/>
<rect x="266.346" y="287.769" width="12" height="12.6154" fill="#D9F99D"/>
<rect x="278.346" y="287.769" width="12" height="12.6154" fill="#D9F99D"/>
<rect x="290.346" y="287.769" width="12" height="12.6154" fill="#D9F99D"/>
<rect x="302.346" y="287.769" width="12" height="12.6154" fill="#D9F99D"/>
<rect x="314.346" y="287.769" width="12" height="12.6154" fill="#D9F99D"/>
<rect x="326.346" y="287.769" width="12" height="12.6154" fill="#D9F99D"/>
<rect x="242.346" y="275.154" width="12" height="12.6154" fill="#D9F99D"/>
<rect x="230.346" y="199.462" width="12" height="12.6154" fill="#D9F99D"/>
<rect x="230.346" y="212.077" width="12" height="12.6154" fill="#D9F99D"/>
<rect x="230.346" y="224.692" width="12" height="12.6154" fill="#D9F99D"/>
<rect x="230.346" y="237.308" width="12" height="12.6154" fill="#D9F99D"/>
<rect x="230.346" y="249.923" width="12" height="12.6154" fill="#D9F99D"/>
<rect x="230.346" y="262.539" width="12" height="12.6154" fill="#D9F99D"/>
<path d="M461.354 281H390.186V265.768L429.738 209.576H391.082V189.608H460.33V204.84L420.778 261.032H461.354V281ZM504.916 208.936C511.828 208.936 517.759 210.131 522.708 212.52C527.743 214.909 531.583 218.493 534.228 223.272C536.959 228.051 538.324 234.067 538.324 241.32V252.2H494.676C494.847 255.869 496.212 258.899 498.772 261.288C501.418 263.677 505.215 264.872 510.164 264.872C514.602 264.872 518.655 264.445 522.324 263.592C525.994 262.739 529.791 261.373 533.716 259.496V277.032C530.303 278.824 526.548 280.147 522.452 281C518.442 281.853 513.364 282.28 507.22 282.28C500.052 282.28 493.652 281.043 488.02 278.568C482.474 276.008 478.079 272.04 474.836 266.664C471.594 261.288 469.972 254.419 469.972 246.056C469.972 237.523 471.423 230.525 474.324 225.064C477.311 219.603 481.407 215.549 486.612 212.904C491.903 210.259 498.004 208.936 504.916 208.936ZM505.812 225.576C502.911 225.576 500.479 226.472 498.516 228.264C496.639 230.056 495.53 232.915 495.188 236.84H516.18C516.18 234.707 515.754 232.829 514.9 231.208C514.132 229.501 512.98 228.136 511.444 227.112C509.908 226.088 508.031 225.576 505.812 225.576ZM594.921 208.936C596.287 208.936 597.695 209.021 599.145 209.192C600.596 209.363 601.663 209.533 602.345 209.704L600.169 232.744C599.316 232.573 598.249 232.403 596.969 232.232C595.775 232.061 594.068 231.976 591.849 231.976C590.313 231.976 588.649 232.147 586.857 232.488C585.151 232.744 583.487 233.341 581.865 234.28C580.329 235.219 579.049 236.627 578.025 238.504C577.087 240.381 576.617 242.941 576.617 246.184V281H552.169V210.216H570.345L574.185 221.48H575.337C576.617 219.176 578.281 217.085 580.329 215.208C582.377 213.245 584.639 211.709 587.113 210.6C589.673 209.491 592.276 208.936 594.921 208.936ZM677.253 245.416C677.253 251.304 676.443 256.552 674.821 261.16C673.2 265.768 670.853 269.651 667.781 272.808C664.709 275.88 660.997 278.227 656.645 279.848C652.293 281.469 647.344 282.28 641.797 282.28C636.677 282.28 631.941 281.469 627.589 279.848C623.323 278.227 619.611 275.88 616.453 272.808C613.381 269.651 610.949 265.768 609.157 261.16C607.451 256.552 606.597 251.304 606.597 245.416C606.597 237.565 608.005 230.952 610.821 225.576C613.723 220.115 617.819 215.976 623.109 213.16C628.4 210.344 634.757 208.936 642.181 208.936C649.008 208.936 655.024 210.344 660.229 213.16C665.52 215.976 669.659 220.115 672.645 225.576C675.717 230.952 677.253 237.565 677.253 245.416ZM631.429 245.416C631.429 249.427 631.771 252.84 632.453 255.656C633.136 258.472 634.245 260.605 635.781 262.056C637.403 263.421 639.493 264.104 642.053 264.104C644.613 264.104 646.619 263.421 648.069 262.056C649.605 260.605 650.715 258.472 651.397 255.656C652.08 252.84 652.421 249.427 652.421 245.416C652.421 241.405 652.08 238.035 651.397 235.304C650.715 232.573 649.605 230.525 648.069 229.16C646.533 227.795 644.485 227.112 641.925 227.112C638.256 227.112 635.568 228.648 633.861 231.72C632.24 234.792 631.429 239.357 631.429 245.416ZM724.449 189.608C733.239 189.608 740.321 190.504 745.697 192.296C751.073 194.003 754.999 196.563 757.473 199.976C759.948 203.304 761.185 207.443 761.185 212.392C761.185 216.403 760.46 219.816 759.009 222.632C757.559 225.363 755.724 227.539 753.505 229.16C751.372 230.781 749.153 231.891 746.849 232.488V233.128C749.324 233.725 751.799 234.749 754.273 236.2C756.748 237.651 758.796 239.827 760.417 242.728C762.124 245.544 762.977 249.384 762.977 254.248C762.977 259.795 761.569 264.573 758.753 268.584C755.937 272.595 751.927 275.667 746.721 277.8C741.516 279.933 735.329 281 728.161 281H692.577V189.608H724.449ZM724.705 224.68C728.801 224.68 731.66 223.827 733.281 222.12C734.988 220.413 735.841 218.365 735.841 215.976C735.841 213.501 734.903 211.624 733.025 210.344C731.148 208.979 728.204 208.296 724.193 208.296H717.281V224.68H724.705ZM717.281 242.728V261.928H725.985C730.252 261.928 733.239 261.032 734.945 259.24C736.652 257.363 737.505 255.016 737.505 252.2C737.505 250.579 737.121 249.043 736.353 247.592C735.671 246.141 734.433 244.989 732.641 244.136C730.935 243.197 728.545 242.728 725.473 242.728H717.281ZM845.003 245.416C845.003 251.304 844.193 256.552 842.571 261.16C840.95 265.768 838.603 269.651 835.531 272.808C832.459 275.88 828.747 278.227 824.395 279.848C820.043 281.469 815.094 282.28 809.547 282.28C804.427 282.28 799.691 281.469 795.339 279.848C791.073 278.227 787.361 275.88 784.203 272.808C781.131 269.651 778.699 265.768 776.907 261.16C775.201 256.552 774.347 251.304 774.347 245.416C774.347 237.565 775.755 230.952 778.571 225.576C781.473 220.115 785.569 215.976 790.859 213.16C796.15 210.344 802.507 208.936 809.931 208.936C816.758 208.936 822.774 210.344 827.979 213.16C833.27 215.976 837.409 220.115 840.395 225.576C843.467 230.952 845.003 237.565 845.003 245.416ZM799.179 245.416C799.179 249.427 799.521 252.84 800.203 255.656C800.886 258.472 801.995 260.605 803.531 262.056C805.153 263.421 807.243 264.104 809.803 264.104C812.363 264.104 814.369 263.421 815.819 262.056C817.355 260.605 818.465 258.472 819.147 255.656C819.83 252.84 820.171 249.427 820.171 245.416C820.171 241.405 819.83 238.035 819.147 235.304C818.465 232.573 817.355 230.525 815.819 229.16C814.283 227.795 812.235 227.112 809.675 227.112C806.006 227.112 803.318 228.648 801.611 231.72C799.99 234.792 799.179 239.357 799.179 245.416ZM926.503 245.416C926.503 251.304 925.693 256.552 924.071 261.16C922.45 265.768 920.103 269.651 917.031 272.808C913.959 275.88 910.247 278.227 905.895 279.848C901.543 281.469 896.594 282.28 891.047 282.28C885.927 282.28 881.191 281.469 876.839 279.848C872.573 278.227 868.861 275.88 865.703 272.808C862.631 269.651 860.199 265.768 858.407 261.16C856.701 256.552 855.847 251.304 855.847 245.416C855.847 237.565 857.255 230.952 860.071 225.576C862.973 220.115 867.069 215.976 872.359 213.16C877.65 210.344 884.007 208.936 891.431 208.936C898.258 208.936 904.274 210.344 909.479 213.16C914.77 215.976 918.909 220.115 921.895 225.576C924.967 230.952 926.503 237.565 926.503 245.416ZM880.679 245.416C880.679 249.427 881.021 252.84 881.703 255.656C882.386 258.472 883.495 260.605 885.031 262.056C886.653 263.421 888.743 264.104 891.303 264.104C893.863 264.104 895.869 263.421 897.319 262.056C898.855 260.605 899.965 258.472 900.647 255.656C901.33 252.84 901.671 249.427 901.671 245.416C901.671 241.405 901.33 238.035 900.647 235.304C899.965 232.573 898.855 230.525 897.319 229.16C895.783 227.795 893.735 227.112 891.175 227.112C887.506 227.112 884.818 228.648 883.111 231.72C881.49 234.792 880.679 239.357 880.679 245.416ZM993.027 259.24C993.027 263.677 992.003 267.645 989.955 271.144C987.993 274.643 984.793 277.373 980.355 279.336C976.003 281.299 970.243 282.28 963.075 282.28C958.041 282.28 953.518 281.981 949.507 281.384C945.582 280.872 941.571 279.848 937.475 278.312V258.728C941.998 260.776 946.563 262.269 951.171 263.208C955.779 264.061 959.406 264.488 962.051 264.488C964.782 264.488 966.787 264.189 968.067 263.592C969.347 262.995 969.987 262.099 969.987 260.904C969.987 259.88 969.561 258.984 968.707 258.216C967.854 257.448 966.318 256.595 964.099 255.656C961.966 254.717 958.894 253.437 954.883 251.816C950.958 250.195 947.673 248.445 945.027 246.568C942.467 244.605 940.547 242.301 939.267 239.656C937.987 236.925 937.347 233.64 937.347 229.8C937.347 222.888 939.993 217.683 945.283 214.184C950.659 210.685 957.742 208.936 966.531 208.936C971.225 208.936 975.619 209.448 979.715 210.472C983.811 211.496 988.078 212.989 992.515 214.952L985.859 230.696C983.555 229.587 981.166 228.648 978.691 227.88C976.302 227.112 974.041 226.515 971.907 226.088C969.859 225.661 968.11 225.448 966.659 225.448C964.782 225.448 963.289 225.704 962.179 226.216C961.155 226.728 960.643 227.453 960.643 228.392C960.643 229.245 960.985 230.013 961.667 230.696C962.435 231.379 963.843 232.147 965.891 233C967.939 233.853 970.926 235.091 974.851 236.712C978.947 238.333 982.318 240.125 984.963 242.088C987.694 243.965 989.699 246.269 990.979 249C992.345 251.645 993.027 255.059 993.027 259.24ZM1041.23 262.952C1043.45 262.952 1045.46 262.739 1047.25 262.312C1049.13 261.8 1051.05 261.203 1053.01 260.52V278.312C1050.36 279.421 1047.55 280.36 1044.56 281.128C1041.57 281.896 1037.78 282.28 1033.17 282.28C1028.56 282.28 1024.51 281.555 1021.01 280.104C1017.59 278.653 1014.91 276.179 1012.94 272.68C1010.98 269.096 1010 264.104 1010 257.704V228.52H1001.42V218.536L1012.3 210.856L1018.58 196.008H1034.58V210.216H1051.98V228.52H1034.58V256.04C1034.58 258.344 1035.13 260.093 1036.24 261.288C1037.43 262.397 1039.1 262.952 1041.23 262.952Z" fill="white"/>
</svg>
