<svg width="448" height="452" viewBox="0 0 448 452" fill="none" xmlns="http://www.w3.org/2000/svg">
    <rect width="12" height="12.6154" transform="matrix(-1 0 0 1 186.154 144)" fill="#84CC16" />
    <rect width="12" height="12.6154" transform="matrix(-1 0 0 1 198.154 156.615)" fill="#84CC16" />
    <rect width="12" height="12.6154" transform="matrix(-1 0 0 1 210.154 169.231)" fill="#84CC16" />
    <rect width="12" height="12.6154" transform="matrix(-1 0 0 1 222.154 181.846)" fill="#84CC16" />
    <rect width="12" height="12.6154" transform="matrix(-1 0 0 1 222.154 194.462)" fill="#84CC16" />
    <rect width="12" height="12.6154" transform="matrix(-1 0 0 1 222.154 207.077)" fill="#84CC16" />
    <rect width="12" height="12.6154" transform="matrix(-1 0 0 1 222.154 219.692)" fill="#84CC16" />
    <rect width="12" height="12.6154" transform="matrix(-1 0 0 1 222.154 232.308)" fill="#84CC16" />
    <rect width="12" height="12.6154" transform="matrix(-1 0 0 1 222.154 244.923)" fill="#84CC16" />
    <rect width="12" height="12.6154" transform="matrix(-1 0 0 1 222.154 257.539)" fill="#84CC16" />
    <rect width="12" height="12.6154" transform="matrix(-1 0 0 1 210.154 270.154)" fill="#84CC16" />
    <rect width="12" height="12.6154" transform="matrix(-1 0 0 1 198.154 282.769)" fill="#84CC16" />
    <rect width="12" height="12.6154" transform="matrix(-1 0 0 1 186.154 295.385)" fill="#84CC16" />
    <rect width="12" height="12.6154" transform="matrix(-1 0 0 1 174.154 295.385)" fill="#84CC16" />
    <rect width="12" height="12.6154" transform="matrix(-1 0 0 1 162.154 295.385)" fill="#84CC16" />
    <rect width="12" height="12.6154" transform="matrix(-1 0 0 1 174.154 144)" fill="#84CC16" />
    <rect width="12" height="12.6154" transform="matrix(-1 0 0 1 162.154 144)" fill="#84CC16" />
    <rect x="102.154" y="144" width="12" height="12.6154" fill="#84CC16" />
    <rect x="90.1539" y="156.615" width="12" height="12.6154" fill="#84CC16" />
    <rect x="78.1539" y="169.231" width="12" height="12.6154" fill="#84CC16" />
    <rect x="66.1539" y="181.846" width="12" height="12.6154" fill="#84CC16" />
    <rect x="66.1539" y="194.462" width="12" height="12.6154" fill="#84CC16" />
    <rect x="66.1539" y="207.077" width="12" height="12.6154" fill="#84CC16" />
    <rect x="66.1539" y="219.692" width="12" height="12.6154" fill="#84CC16" />
    <rect x="66.1539" y="232.308" width="12" height="12.6154" fill="#84CC16" />
    <rect x="66.1539" y="244.923" width="12" height="12.6154" fill="#84CC16" />
    <rect x="66.1539" y="257.539" width="12" height="12.6154" fill="#84CC16" />
    <rect x="78.1539" y="270.154" width="12" height="12.6154" fill="#84CC16" />
    <rect x="90.1539" y="282.769" width="12" height="12.6154" fill="#84CC16" />
    <rect x="102.154" y="295.385" width="12" height="12.6154" fill="#84CC16" />
    <rect x="114.154" y="295.385" width="12" height="12.6154" fill="#84CC16" />
    <rect x="126.154" y="295.385" width="12" height="12.6154" fill="#84CC16" />
    <rect x="138.154" y="295.385" width="12" height="12.6154" fill="#84CC16" />
    <rect x="114.154" y="144" width="12" height="12.6154" fill="#84CC16" />
    <rect x="126.154" y="144" width="12" height="12.6154" fill="#84CC16" />
    <rect x="138.154" y="144" width="12" height="12.6154" fill="#84CC16" />
    <rect x="114.154" y="181.846" width="12" height="12.6154" fill="#84CC16" />
    <rect x="102.154" y="194.462" width="12" height="12.6154" fill="#84CC16" />
    <rect x="102.154" y="207.077" width="12" height="12.6154" fill="#84CC16" />
    <rect x="102.154" y="219.692" width="12" height="12.6154" fill="#84CC16" />
    <rect x="102.154" y="232.308" width="12" height="12.6154" fill="#84CC16" />
    <rect x="102.154" y="244.923" width="12" height="12.6154" fill="#84CC16" />
    <rect x="114.154" y="257.539" width="12" height="12.6154" fill="#84CC16" />
    <rect x="126.154" y="257.539" width="12" height="12.6154" fill="#84CC16" />
    <rect x="138.154" y="257.539" width="12" height="12.6154" fill="#84CC16" />
    <rect x="138.154" y="181.846" width="12" height="12.6154" fill="#84CC16" />
    <rect x="126.154" y="181.846" width="12" height="12.6154" fill="#84CC16" />
    <rect x="150.154" y="181.846" width="12" height="12.6154" fill="#84CC16" />
    <rect x="162.154" y="181.846" width="12" height="12.6154" fill="#84CC16" />
    <path d="M174.154 194.462H186.154V207.077H174.154V194.462Z" fill="#84CC16" />
    <rect x="174.154" y="207.077" width="12" height="12.6154" fill="#84CC16" />
    <rect x="174.154" y="219.692" width="12" height="12.6154" fill="#84CC16" />
    <rect x="174.154" y="232.308" width="12" height="12.6154" fill="#84CC16" />
    <rect x="174.154" y="244.923" width="12" height="12.6154" fill="#84CC16" />
    <rect x="150.154" y="257.539" width="12" height="12.6154" fill="#84CC16" />
    <rect x="162.154" y="257.539" width="12" height="12.6154" fill="#84CC16" />
    <rect x="78.1539" y="181.846" width="12" height="12.6154" fill="#D9F99D" />
    <rect x="90.1539" y="169.231" width="12" height="12.6154" fill="#D9F99D" />
    <rect x="102.154" y="156.615" width="12" height="12.6154" fill="#D9F99D" />
    <rect x="102.154" y="169.231" width="12" height="12.6154" fill="#D9F99D" />
    <rect x="114.154" y="169.231" width="12" height="12.6154" fill="#D9F99D" />
    <rect x="126.154" y="169.231" width="12" height="12.6154" fill="#D9F99D" />
    <rect x="138.154" y="169.231" width="12" height="12.6154" fill="#D9F99D" />
    <rect x="150.154" y="169.231" width="12" height="12.6154" fill="#D9F99D" />
    <rect x="162.154" y="169.231" width="12" height="12.6154" fill="#D9F99D" />
    <rect x="174.154" y="169.231" width="12" height="12.6154" fill="#D9F99D" />
    <rect x="174.154" y="181.846" width="12" height="12.6154" fill="#D9F99D" />
    <rect x="186.154" y="169.231" width="12" height="12.6154" fill="#D9F99D" />
    <rect x="186.154" y="194.462" width="12" height="12.6154" fill="#D9F99D" />
    <rect x="186.154" y="207.077" width="12" height="12.6154" fill="#D9F99D" />
    <rect x="186.154" y="219.692" width="12" height="12.6154" fill="#D9F99D" />
    <rect x="186.154" y="232.308" width="12" height="12.6154" fill="#D9F99D" />
    <rect x="186.154" y="244.923" width="12" height="12.6154" fill="#D9F99D" />
    <rect x="186.154" y="257.539" width="12" height="12.6154" fill="#D9F99D" />
    <rect x="174.154" y="257.539" width="12" height="12.6154" fill="#D9F99D" />
    <rect x="186.154" y="270.154" width="12" height="12.6154" fill="#D9F99D" />
    <rect x="186.154" y="181.846" width="12" height="12.6154" fill="#D9F99D" />
    <rect x="198.154" y="181.846" width="12" height="12.6154" fill="#D9F99D" />
    <rect x="198.154" y="194.462" width="12" height="12.6154" fill="#D9F99D" />
    <rect x="198.154" y="207.077" width="12" height="12.6154" fill="#D9F99D" />
    <rect x="198.154" y="219.692" width="12" height="12.6154" fill="#D9F99D" />
    <rect x="198.154" y="232.308" width="12" height="12.6154" fill="#D9F99D" />
    <rect x="198.154" y="244.923" width="12" height="12.6154" fill="#D9F99D" />
    <rect x="198.154" y="257.539" width="12" height="12.6154" fill="#D9F99D" />
    <rect x="102.154" y="181.846" width="12" height="12.6154" fill="#D9F99D" />
    <rect x="114.154" y="156.615" width="12" height="12.6154" fill="#D9F99D" />
    <rect x="126.154" y="156.615" width="12" height="12.6154" fill="#D9F99D" />
    <rect x="138.154" y="156.615" width="12" height="12.6154" fill="#D9F99D" />
    <rect x="150.154" y="156.615" width="12" height="12.6154" fill="#D9F99D" />
    <rect x="162.154" y="156.615" width="12" height="12.6154" fill="#D9F99D" />
    <rect x="174.154" y="156.615" width="12" height="12.6154" fill="#D9F99D" />
    <rect x="90.1539" y="181.846" width="12" height="12.6154" fill="#D9F99D" />
    <rect x="90.1539" y="194.462" width="12" height="12.6154" fill="#D9F99D" />
    <rect x="90.1539" y="207.077" width="12" height="12.6154" fill="#D9F99D" />
    <rect x="90.1539" y="219.692" width="12" height="12.6154" fill="#D9F99D" />
    <rect x="90.1539" y="232.308" width="12" height="12.6154" fill="#D9F99D" />
    <rect x="90.1539" y="244.923" width="12" height="12.6154" fill="#D9F99D" />
    <rect x="90.1539" y="257.539" width="12" height="12.6154" fill="#D9F99D" />
    <rect x="102.154" y="257.539" width="12" height="12.6154" fill="#D9F99D" />
    <rect x="102.154" y="270.154" width="12" height="12.6154" fill="#D9F99D" />
    <rect x="114.154" y="270.154" width="12" height="12.6154" fill="#D9F99D" />
    <rect x="126.154" y="270.154" width="12" height="12.6154" fill="#D9F99D" />
    <rect x="138.154" y="270.154" width="12" height="12.6154" fill="#D9F99D" />
    <rect x="150.154" y="270.154" width="12" height="12.6154" fill="#D9F99D" />
    <rect x="162.154" y="270.154" width="12" height="12.6154" fill="#D9F99D" />
    <rect x="174.154" y="270.154" width="12" height="12.6154" fill="#D9F99D" />
    <rect x="102.154" y="282.769" width="12" height="12.6154" fill="#D9F99D" />
    <rect x="114.154" y="282.769" width="12" height="12.6154" fill="#D9F99D" />
    <rect x="126.154" y="282.769" width="12" height="12.6154" fill="#D9F99D" />
    <rect x="138.154" y="282.769" width="12" height="12.6154" fill="#D9F99D" />
    <rect x="150.154" y="282.769" width="12" height="12.6154" fill="#D9F99D" />
    <rect x="162.154" y="282.769" width="12" height="12.6154" fill="#D9F99D" />
    <rect x="174.154" y="282.769" width="12" height="12.6154" fill="#D9F99D" />
    <rect x="90.1539" y="270.154" width="12" height="12.6154" fill="#D9F99D" />
    <rect x="78.1539" y="194.462" width="12" height="12.6154" fill="#D9F99D" />
    <rect x="78.1539" y="207.077" width="12" height="12.6154" fill="#D9F99D" />
    <rect x="78.1539" y="219.692" width="12" height="12.6154" fill="#D9F99D" />
    <rect x="78.1539" y="232.308" width="12" height="12.6154" fill="#D9F99D" />
    <rect x="78.1539" y="244.923" width="12" height="12.6154" fill="#D9F99D" />
    <rect x="78.1539" y="257.539" width="12" height="12.6154" fill="#D9F99D" />
    <rect x="357.231" y="146" width="24.6154" height="26.6667" fill="#D9F99D" />
    <rect x="283.385" y="252.667" width="24.6154" height="26.6667" fill="#D9F99D" />
    <rect x="308" y="146" width="24.6154" height="26.6667" fill="#84CC16" />
    <rect x="332.615" y="172.667" width="24.6154" height="26.6667" fill="#84CC16" />
    <rect x="357.231" y="199.333" width="24.6154" height="26.6667" fill="#84CC16" />
    <rect x="308" y="172.667" width="24.6154" height="26.6667" fill="#84CC16" />
    <rect x="332.615" y="146" width="24.6154" height="26.6667" fill="#D9F99D" />
    <rect x="258.769" y="226" width="24.6154" height="26.6667" fill="#D9F99D" />
    <rect x="332.615" y="199.333" width="24.6154" height="26.6667" fill="#84CC16" />
    <rect x="258.769" y="252.667" width="24.6154" height="26.6667" fill="#D9F99D" />
    <rect x="283.385" y="199.333" width="24.6154" height="26.6667" fill="#D9F99D" />
    <rect x="234.154" y="252.667" width="24.6154" height="26.6667" fill="#EF4444" />
    <rect x="357.231" y="172.667" width="24.6154" height="26.6667" fill="#D9F99D" />
    <rect x="308" y="199.333" width="24.6154" height="26.6667" fill="#D9F99D" />
    <rect x="283.385" y="226" width="24.6154" height="26.6667" fill="#D9F99D" />
    <rect x="308" y="226" width="24.6154" height="26.6667" fill="#D9F99D" />
    <rect x="258.769" y="279.333" width="24.6154" height="26.6667" fill="#EF4444" />
    <rect x="234.154" y="279.333" width="24.6154" height="26.6667" fill="#EF4444" />
    <rect x="258.769" y="199.333" width="24.6154" height="26.6667" fill="#D9F99D" />
    <rect x="308" y="252.667" width="24.6154" height="26.6667" fill="#D9F99D" />
</svg>